# xmcd CD database file
#
# Track frame offsets:
#	150
#	2557
#	36240
#	68499
#	103083
#	136316
#	165950
#	198885
#	237068
#
# Disc length: 3603 seconds
#
# Revision: 0
# Processed by: cddbd v1.5.2PL0 Copyright (c) Steve Scherf et al.
# Submitted via: CDex 1.51
#
DISCID=640e1109
DTITLE=David Arkenstone - Healing Waters
DYEAR=2006
DGENRE=New Age
TTITLE0=Prelude
TTITLE1=Healing Waters
TTITLE2=Morning Song
TTITLE3=Rejuvenation
TTITLE4=Summer Serenade
TTITLE5=Water Spirit
TTITLE6=The Water's Edge
TTITLE7=Reflections
TTITLE8=The Winding River
EXTD=YEAR: 2006
EXTT0=
EXTT1=
EXTT2=
EXTT3=
EXTT4=
EXTT5=
EXTT6=
EXTT7=
EXTT8=
PLAYORDER=
